<<<<<<< HEAD
<mxfile host="app.diagrams.net" modified="2022-12-07T09:02:50.023Z" agent="5.0 (Windows NT 10.0; Win64; x64) AppleWebKit/537.36 (KHTML, like Gecko) Chrome/108.0.0.0 Safari/537.36" etag="BtCucR9BJT8B4XVHrEt3" version="20.6.0" type="device"><diagram id="dZZJJvSow7xJnYAQUVRf" name="Page-1">7V1tc6M4Ev41qZq9qlBI4vVjXia7dzVzN3szt7f7aQobOeYGGy/gSbK//iTxYpCEDTYgMiG3dWMIBtL9qPtRq7t1he42zz/H3m79MfJxeAV1//kK3V9BCBFC5B965iU7Y9t6duIxDvzsFDic+Bz8hfOTxWX7wMdJ7cI0isI02NVPLqPtFi/T2jkvjqOn+mWrKKw/dec9YuHE56UXimf/G/jpOjvrmPrh/C84eFwXTwZ6/puNV1ycn0jWnh89VU6h91foLo6iNPu0eb7DIRVeIZfsew8Nvy1fLMbbtM0XnM3DTfrb3z/+fv2Pp90K/rz8+GV7DYCZ3ee7F+7zPzl/3fSlkMHTOkjx5523pMdPRM9X6HadbkJyBMhHL9llkl8Fz5g87Lb8S+lvQ2+Bw1tv+e0xjvZb/y4Ko5jdFkHj5hZZ5JJVtE1zzVOx3K6CMKxc98B+yHnxL86F8B3HKX6unMol8DOONjiNX8glxW8LbeRwdPI7PB10C2Ch3HVVseVZL0fUY3nzg9DJh1zunXRgvCkdXNtWXQnAdHRBDVB3JGo4nO1dDQ6UaMEKUyrMnbetqcP6c0+HLZPadcLEdkMugHD3zGRU/J58eqT/LkMvSagVDLzH2NtscHFn8qbZzbPrBLUzfVGFMj2eAEFN55wCLd1zgU0vSuPoG65C4J7oQ8//mMr5FfvpR+UmN+yAZYoaR4ZE4dZg6kaN6t5Jdb3x4sdgSxStMyVnh9dpRJRwY7BTRBjptRcGj/SqJZEWjqVoKJ4TVE54G6rMUDzKoZOfql9euxuRQsA/YRELZ4oTN/4m2Fa+u+CvJOd2/LkukgnxKi1F0ywE8RVlD17H9MkFOyjuBZpvq+BNuaFLR0dAiMRNBoh7hpTbHB732TNvI3LVKmSDlg7YuiEGMD9+8DZBSIfOLzj8juldjwz8Nsa+wbg3WQDBZui69f6mJ3dg1E0DBLYpOgOpS9bNoWyDIWgT+4QW5ofbaEv+uT3YZmo9ozhdR4/R1gs/RFTTTBf/w2n6kmvT26dRXW34OUh/r3z+o/L5/jm/Lzt4yQ94L90o/iTax0vcwvylZAjgtMWFVABH1Rnj0EuD73Xe3L9qZHz1DZnt+2iZRvGrsdu9PviW3ozw3IAoK6WQy1gXsU7B9nHUt1hidc9XJn6lev8e4KevPgP/u59K0ZMZvvei6j0S8iKK3sLHIU4xJ49FFIWjvgX2g1TUyeiv4fn+BN4iwV68XFeg0QKjM2M8jzFaPGW0bE0kjUAaQECDTSitt81MEpwkQdR5Sql2ZnebaVXuyqt/LL0wDVLyVIW0w8fJMg52KROzutdIyKSBGH4vVSoMvPWVv8PGe/663W/KVwiITXtFcY3Ce+ZDV6X7ZLyKe4/xedXS2y5xOAV5MG51eA81L0G8PnE56tWScytRLeO+yhwGHJDUIYcjdVaxZlCNA0IZpRtujcB+25Tuk5cG+ODSXg+lWwRxuvaJaWjB6pbsGa34w2tYhWj1YPJb+uz6/5+wwQSyX/e7d8F2FX3dZcD4adxXyKMe3nJJLFr6LvBHfj7zyYenX8E7hcJghCl/dMtww2DQyNxz/jJq3yWnLLxg5iBM3/7a4Zb026/bkbND+Wvnbftrb7eLyBR08yp9diUMk02jM3lsF8nuMmd3Bn2Iom+EClTCCwpiCzFesdjCq+Amt3kkoYJA5dEE+bsoCypIXmcychlfKBmXmoBIcsKgXChzcGFIsoLsOlmxi2zPk8EF4AxFVty3TVb2Ce6cx9K3kztjgiHQFGlQYbUPw69bb9Pj6sQ5E9aNF4RK32C3Zrlyx6MwI79QGjWIRNk7kQH2FMW+yHkVai6OQvxVDvZp0s888+JrFp65JBrT/dlFuEHJw7eE0xUzFhXPTyPfeykWZ9SIIIzIpe9yc3dXjKeGd5g51HlZN1yiNnAkNRxyDlXU/PXOoVz9aKL2ISf7/eFsf3nbumZeHTK3y2RtaeY2kXv8UvkSPSzzvenB4WvsSGXGtzupjG8XzDpurWPzleoYKtFxT/qqYMW0q2jRiP09jhhy8AnHAZEinaqxcxdo31amffbVmyxgUl7AIipJ5c6fIsYiC4/imi6/hKBXoSR+QUj8NOyjXzDN418gH7KXln8dCEkJgHdlmVLy7x15E0t4dWATeBx+uDWRTIfCfdnoKhV0Sc2xLFuVG4KUmOzaM4eyCN9bFHfQjzIKxBdji3zCQabIJ0BZM9Z/LbYglZtPfxcEQ3jcjn7cb8KHmE7yT5bmckxutcLWciljbL7tLnS5GTihyNZEDhY1/4XYbQ04ksU7S8blADCh5oDBlvCgqICs4KlZBdkF6LYg8h8osf4UJQHLk0X3iyhNo03lgjrTr2hpQJnXRQ4tQzMsmdCRROamVVFQ7xIX66B/RIkbtl6B7SmBO9pwCDfQUa7Td3EpR2DLo0sIyXEdneQpxiDsQ3C5iIeADjUdCYod2NMa5qxuNeq2Rlb0m7Cjll2xjSrNaNEgqiJvuqZMXyGgrVZ2cURIFxZj6vxgDMNgl3SncL6JHd+QUTgHLpBlDaoUHuvAMTTdkqgFyHqqGI5moMH4BLREGU/a4B3CANUgQCUm0BAG6N1Q5tz35PS9gP5EgjfotXm4ySi8bUR2YgoH4iyZJhbRvzhfBOrNyq6cJZZPlBeOaZjDTpR5K4uAGKBQYWCdebwNbGDBpMabcXyVa1b45QZ2Ygo/vuQ1K/zUJEyBwttNSpGBNPfA1MeK9otRVZowQl+gWjHQl89erWBDcNtaWObAMyMuuG0CVPHFVcdtje640WzHh3bccFJ2HIix9awY4ECVext1GPgmljZ4dS0beePGIwxD12xpuF0BXzbG7eb4Aw271vRpWj0iJf20y2E3iMOb0iTVdIA2jXGHZhY7tLvrfWnlMkM7R36HNrQTU7g9K3zgeeq0FC7ZLSSP/G6wTxupQD0Mkh/Us1rI1aQzSQWuFc4Db2DXak5q4Jlz6GBo1zoxhc8jfGjXOi2FA7HXXO5af/gpK7JteW6misVVdx53A3tWe1LjzpgN7dCedVoKB2KTMM/36ZMq05i+zKxJ/3clVOxmPzLza7GfUc2vrTcUgCgwv+ZrS46fzGhsTXucaY1GsQtO1uYzH5B9L5O9ihEJdNvU0EQYkTkvnw09JKdVjA3FzPp8JlK0OeltNCpetIb1UQdQU66IglE3L54NTEvhtJKqzTmLfmAzOzGFF9anYmZ3Rb99DgiddoGeRDZeEdmBttyiyrbmApXllf6lLaZi+ZG0Pu8SYavxZ0XmB7I1olAJaxxf2mIGjpftN90nsidF5YvJtKFL6yNHV4EpTqzy9hy9sTelib6Wy6UcOq4G5WEMWR+LYdmbJVqbYLsM9z4Whb/1b+KYdYWLdnjL3KVfbSzne8m6HCEVZdSpQFdBn/SWZttJiSyn+sKs+bJ0u1h51w3NdUR9tW2+YxZ7M5b3I9Nrc+QkfEvsuDNjogMm7DomqLczDdcSGqO0BYWNLM1wiD8gN4HQNThzYukaeQZBnkU8N0HQuFgRFwMnhpUpmAWmIwMRu2C47Oc8IPCepF4yMpbGxVWJgTU+1vxt2laFh5RuaU4Bp/MhZXNVSIZpatRkjd18xhJJ4Gio0nQH1ZGFTiCLHQlhhjxgUQQv2oQrukL0ZIihKBd8VVhGhOOe7RyPltGNhF5b7DMwe0FBzRCQkZXZlqyTJDxT5Tqnch0J8Bla4aNPmyrmCuigbq4cwz3HYP3Q/tGyHA0h3T17KmbDY6zbdIGmE7tlKmHdthi1GtNbWhz8LPh6/aXzCrHNJoQujSFdNJ2wDeIqjfqo0SEdNeUPHBfWYtHGeLAmYq7D2rVeL6rdV4hqBxCT6pgXWOzCChc22oDayLRg9MjZJODWer1yDBSxFG10fgjW5suUkayN9MBAcsQJRbFFTLLztjUoFRvN0MWl62xjI7oNEoQNG9HsE5qytvToP+WuM9ldGzae6bT2Vds6hluHsXTPBdJVR3hvW6ybeNOOMV1B26FvaNEWsNokVJZHM2iXUFekdGV6IdcnlLckP0JfUDJv1yaS2eu+lVrh07u5jFRoUWB/Ivku7ltpWzg4ANpmuE0NAI3F42/AEhMXp7kTyS11xT4d87Dr0e5Oq7C0iGPMdnc0uzstANDANm9481b5b6fkDdassT0NQwyKJZd5bI5Wa1MMhskMTigMzloB3NsYnqA2PB0DTqYhANDFRcmK9Xwj9Yl18+k68k1glKhHlmruv2ntAF2byF4wQFebgPQjLam2dlwjJN/aBtAuSQIAtLzZ5bPsygUmgl+2YKVitRRINpaaIXsmZKFKyNatoqM7ss77HdavjkHW1DXENvRUA9nRE+UqkK0leRKzAE/NBaYM2LZTfLWVELpWAaJbX553bEuzxe1i21dFHMW5pdP8LGWmWZwrvYVEgJLjKkGbcxRtjqUZF1hVPs1YRVYAkGzTMEFY1VgCl6oKnLOMbu9ILSKfE7ef3CI5JBIF0Lk4gXoKOfNAfytN2CcUUmxLc8cKKc4r7aNDYGI7oOhzts3oEJhWtkXJoiqs5h152B34SYBGip9phqKX7y6+JLKjismEm19G1c1vQ74JfJ/+kmZPLoPt4we8oiJChzP/ziONYmy0hGDqpd6CPYLqk7U6ZrIwb8l/xOPfURCY5DXvyDE4HJP/6OVxehdtya29gCkce0n6hBOW0llNmQzp1uq33vLbIwN9JUL7wH7qUAIOF/vN31ZEVzHzbh2tNbmSl0Og4kS3kGJf7QGQIuZXM6T8bUaKUqS4eh0pJcFUhxSxL8GMFPVIKTemLpBiIbsVUoCuDwYVceVndj/qoeLUA3rQKNrSnECKMRhQkLjeMgNFPVBcQ+eR0s77DIgUcZlj9j7qkWJw3bUOxEUZTyn2x5qRMimk2CZnU1CR1KDOpoix/xkp6pFiQVdDDg+WdmZlQLCIuWYzWNSDBfET5bZmZbCyU4Dm4NsUkQJtzqZA19VaBlV6wMr6z/XP//v8rz/++WJ/ffYXN79vf11eiw5IgMiJJFUv2dG2vuh+FTzTaH4fkrpGsD6okG2J5hfqxfJmTVR6HwmlUmGJw6q3Av4E/7nH2yXNu/cD7zH2NptXXsrfPeKIOJ07EpcrLeK3evC5UoVLUtsE6ROB7ujH/Sb8EKxwGDBzQSRB7GVA1JZmv7th7d7JLypLT2F+fWU56pT6lkT+xN6xr2fHYejtkuBgRmO83MdJ8B3/G2e4Y2d5+53SNbbCVH9hC26IJn9G+5S+0V3erLspU6O77ePIt6EXoqwNaFG3yHWGUq5sOHPKrUi+7p7uOVUeli+ryhQFdxxm7cdKTZi2OE6ATJRosHEiznjz3SSI5G6aNpZoGDlqBogU+H3UdHePaABhqMj0K517DKZgcZFO1ViBneXJb2/WcrQMJkzJ4sSrESZnxoGElsmE2ctSj5zASvYLI7MZ32M1jMF2FQmyreaiHMT3/nC2Rm9zhxmyCQ433cmqI8qkzEUYLb9dNWar19Mmr6oJLFmz4jyD5VrXdL040T6JpaPOq7knR8d8NfnkKJ77yz2Rpzia9YHswvoNGjIliXK8l8pl+XBq/RS3erNTVxe7fTRd7lx2uVW7nHzI/rhzczil2pTsFEF8qn/Mez+Q6Qo+7ZqFDVyw1bCBi+0u9DMg3WWCyS9aS1YNLOmiNRjKktliE35B6DlHyiT23/xVednmEQvOcp2K4GSTgGvQNqbDh29YmOVTlAQprXlF93F2rcx9HYvc1LAQbNfEyBXz6OOZdr0ho6gaLaahhhjOs2xXRMZg8xQxRpPgmPxFx4bkTKgPKrVFQi3OPccm1GIukyoOiLrKk88hlE5PJJbTGUqYhjj9JPyPluBH345JlTeJiyhNo02d0+WFNrXKmkPVjSOwvY5SH5ozcbpCOmel2paXXEMuI0O4U3+lJXKSKbOClJboYfRIW5TIuX5HbTcw+KJgSgOGc1VNNQcsXHopT8+1epqRSwqcjlL3LgVOxei8EHBlMKowtgJhags5xIcMhTsNDTkxQJjgkO1hWIIuszNDgK4RJqe1byvTvsFrH1pCv+72xcCn7zUwAiQLqYKy8xVU6RLngKzcEFm5MRgr74GEIR4ZsoQK2QIAMAZiDUicb628MBHLbn/MNfIedAoMfoS2TJLpI/dOrlMxtJrG+1mlF6jUVKxSQ0x7irEfxJkfTiPmhJP1IvJiMUg1Otnvvb9fE63nrSmfd9bWywp8TbjTwD7WEvV7BS1vQ8MQ20XC/tnT27wR1dpcSNkoE8y6qlYgY8KdhlatSJ8wUUfMBJvQrtvsM954wdvRrzB0hSDT2UNXuNPQ+hWDWLO3vcjblikaqrytZCfgmRRfqFNHsU4LMyHJW6Taqum1a95iHgcpExWzGzYkKnbNJO1jwfCMGsUWaYiWRH+DZSFKdqJVtiJbyMCkrTHKvx7Ro030PR+UrOUUXQuqHlcGLT1mbaYrx7SrceVwmS0bVc70oFqun5wBJCNz7EVfkf3mFKlOgbNLaFqLrKPwwFzpkMGiGZBr/oWssgXjZc2/Wkc3e9/foIGnWfxMGEDNsM+kak6Lmw3M1mwxNiIAac4vaMwv6E4EdF7nSKx2HyqTIPntP3/9S7dWXzzzPx//ePic/Pnr47Usmz3z3DspCdgQQBLvjm505v2zw2uWOn5jsFOUBV7nQLgpOaBIE4rnBJUTmX0LxaNlyCaH+ana98mfHfD3XMTCmbKqghCKgLxeGuCkcosF/wVybsef6yKSbAjkMmn+68U3HfzBtxkmoJ7xOAJ/MsxGffqWMhFFz1cm9nYP5oyvvEaDM7MRuWoVMjdObXLddLEmoPT4wdsEIbU7v+DwO6Z3vWquAmoukIPGzS0rC+GIYq1wTlYOJBBIXbfe3zz0Y1hl5bmyqn9gWxqUVIjxUbDe7KssksnpuMLC/MDbEBr/ZR3knVwfmD45NsZ2sO7UyrX4fLKRq4lgncvp4KztsRtVerK9nSNJaDjmuVQ0bLX4TFHT5PDTekHbPnWn/hjgl68r+Nsa/IoXxgfP+oZs07Wk/r8ZnznNO4k9XQNmDX+abpzA4NEWjJpjGHVcunZPDYbb4rJszHC68WLR7KMLNE3JFNPsB602N2sRUxjbotXhcY9GRiscCK2OadTR2h2sjcjiUNDGBCKVcIFC8wJEe+yfhxh+xiwWHDYgpmuJBjQN+YP6KoyQ4rFFqXwXPFb8cNXagVOW7oBju972tqwh6jkV8XgzxpMW0mmb6ToO4g0e8da5BtLke5S1dedd4Q4sLuHahiPAvRuZHR7uAFZJRm81cu0BLymHkwP+jPTLAQHvIB7w5+YTOA5/p5apIl0BL3T/K3rPDgr4Frme5wHe0muQpzua2Ofw2YZ+50cHwfmAd1rjvW1AfiQGrPMoPTcBXWgYZ/JLfAMz4BZF9x0Q2QiFiShOMurPLFYR78SXHp2tOHIYRzTYd7g89nbrj5GP6RX/Bw==</diagram></mxfile>
=======
<mxfile host="65bd71144e">
    <diagram id="dZZJJvSow7xJnYAQUVRf" name="Page-1">
        <mxGraphModel dx="4185" dy="2150" grid="1" gridSize="10" guides="1" tooltips="1" connect="1" arrows="1" fold="1" page="1" pageScale="1" pageWidth="850" pageHeight="1100" math="0" shadow="0">
            <root>
                <mxCell id="0"/>
                <mxCell id="1" parent="0"/>
                <mxCell id="8mFAtVIMX-Jwpf2GcMTn-115" value="" style="whiteSpace=wrap;html=1;aspect=fixed;shadow=1;labelBackgroundColor=#24AB36;fontSize=22;fillColor=#FFFFFF;" parent="1" vertex="1">
                    <mxGeometry x="120" y="81" width="1250" height="1250" as="geometry"/>
                </mxCell>
                <mxCell id="8mFAtVIMX-Jwpf2GcMTn-114" value="" style="whiteSpace=wrap;html=1;aspect=fixed;shadow=1;labelBackgroundColor=#24AB36;fontSize=22;fillColor=#FFFFFF;" parent="1" vertex="1">
                    <mxGeometry x="-330" y="1650" width="2080" height="2080" as="geometry"/>
                </mxCell>
                <mxCell id="8mFAtVIMX-Jwpf2GcMTn-82" value="&lt;span style=&quot;font-size: 22px;&quot;&gt;class diagramme&lt;/span&gt;" style="rounded=1;whiteSpace=wrap;html=1;shadow=1;fillColor=#60a917;strokeColor=#2D7600;fontColor=#ffffff;" parent="1" vertex="1">
                    <mxGeometry x="520" y="1665" width="340" height="60" as="geometry"/>
                </mxCell>
                <mxCell id="8mFAtVIMX-Jwpf2GcMTn-119" style="edgeStyle=orthogonalEdgeStyle;shape=link;rounded=0;orthogonalLoop=1;jettySize=auto;html=1;entryX=0;entryY=0.5;entryDx=0;entryDy=0;fontSize=22;" parent="1" source="8mFAtVIMX-Jwpf2GcMTn-83" target="8mFAtVIMX-Jwpf2GcMTn-85" edge="1">
                    <mxGeometry relative="1" as="geometry"/>
                </mxCell>
                <mxCell id="8mFAtVIMX-Jwpf2GcMTn-83" value="&lt;p style=&quot;margin:0px;margin-top:4px;text-align:center;&quot;&gt;&lt;i&gt;&amp;lt;&amp;lt;class&amp;gt;&amp;gt;&lt;/i&gt;&lt;br&gt;&lt;b&gt;Admin&lt;/b&gt;&lt;/p&gt;&lt;p style=&quot;margin:0px;margin-left:4px;&quot;&gt;+ role : string&lt;/p&gt;&lt;hr size=&quot;1&quot;&gt;&lt;p style=&quot;margin:0px;margin-left:4px;&quot;&gt;+ add_doctor(info_doctor)&lt;br&gt;&lt;/p&gt;&lt;p style=&quot;margin:0px;margin-left:4px;&quot;&gt;+ edit_doctor(id,info_doctor)&lt;br&gt;&lt;/p&gt;&lt;p style=&quot;margin:0px;margin-left:4px;&quot;&gt;+ delete_doctor(id)&lt;/p&gt;&lt;p style=&quot;margin:0px;margin-left:4px;&quot;&gt;+ view_doctors()&lt;/p&gt;&lt;p style=&quot;margin:0px;margin-left:4px;&quot;&gt;+ search_doctors(search_by)&lt;/p&gt;&lt;p style=&quot;margin:0px;margin-left:4px;&quot;&gt;+ add_session(info_session)&lt;/p&gt;&lt;p style=&quot;margin:0px;margin-left:4px;&quot;&gt;+ edit_session(id,info_session)&lt;/p&gt;&lt;p style=&quot;margin:0px;margin-left:4px;&quot;&gt;+ delete_session(id)&lt;/p&gt;&lt;p style=&quot;margin: 0px 0px 0px 4px;&quot;&gt;+ view_sessions()&lt;/p&gt;&lt;p style=&quot;margin: 0px 0px 0px 4px;&quot;&gt;+ filter_sessions(filter_by)&lt;/p&gt;&lt;p style=&quot;margin:0px;margin-left:4px;&quot;&gt;+ view_patients()&lt;/p&gt;&lt;p style=&quot;margin:0px;margin-left:4px;&quot;&gt;+ search_patients(search_by)&lt;/p&gt;&lt;p style=&quot;margin:0px;margin-left:4px;&quot;&gt;+ view_appointments()&lt;/p&gt;&lt;p style=&quot;margin:0px;margin-left:4px;&quot;&gt;+ cancel_appointment(id)&lt;/p&gt;&lt;p style=&quot;margin:0px;margin-left:4px;&quot;&gt;+ filter_appointment(filter_by)&lt;/p&gt;&lt;div&gt;&lt;br&gt;&lt;/div&gt;&lt;p style=&quot;margin:0px;margin-left:4px;&quot;&gt;&lt;br&gt;&lt;/p&gt;" style="verticalAlign=top;align=left;overflow=fill;fontSize=12;fontFamily=Helvetica;html=1;shadow=1;labelBackgroundColor=#24AB36;fillColor=#FFFFFF;fontColor=#ffffff;strokeColor=#006EAF;" parent="1" vertex="1">
                    <mxGeometry x="40" y="2175" width="250" height="290" as="geometry"/>
                </mxCell>
                <mxCell id="8mFAtVIMX-Jwpf2GcMTn-84" style="edgeStyle=none;rounded=0;orthogonalLoop=1;jettySize=auto;html=1;exitX=1;exitY=1;exitDx=0;exitDy=0;fontSize=22;" parent="1" source="8mFAtVIMX-Jwpf2GcMTn-83" target="8mFAtVIMX-Jwpf2GcMTn-83" edge="1">
                    <mxGeometry relative="1" as="geometry"/>
                </mxCell>
                <mxCell id="8mFAtVIMX-Jwpf2GcMTn-85" value="&lt;p style=&quot;margin:0px;margin-top:4px;text-align:center;&quot;&gt;&lt;i&gt;&amp;lt;&amp;lt;class&amp;gt;&amp;gt;&lt;/i&gt;&lt;br&gt;&lt;b&gt;Doctor&lt;/b&gt;&lt;/p&gt;&lt;p style=&quot;margin:0px;margin-left:4px;&quot;&gt;&lt;br&gt;&lt;/p&gt;&lt;p style=&quot;margin:0px;margin-left:4px;&quot;&gt;+ speciality : string&lt;/p&gt;&lt;p style=&quot;margin:0px;margin-left:4px;&quot;&gt;+ cety : string&lt;/p&gt;&lt;hr size=&quot;1&quot;&gt;&lt;p style=&quot;margin:0px;margin-left:4px;&quot;&gt;+ view_sessions()&lt;br&gt;&lt;/p&gt;&lt;p style=&quot;margin:0px;margin-left:4px;&quot;&gt;+ filter_sessions(filter_by)&lt;/p&gt;&lt;p style=&quot;margin:0px;margin-left:4px;&quot;&gt;+ cancel_session(id)&lt;/p&gt;&lt;p style=&quot;margin:0px;margin-left:4px;&quot;&gt;+ view_appointments()&lt;/p&gt;&lt;p style=&quot;margin:0px;margin-left:4px;&quot;&gt;+ filter_appointments(filter_by)&lt;br&gt;&lt;/p&gt;&lt;p style=&quot;margin:0px;margin-left:4px;&quot;&gt;+ cancel_appointement(id)&lt;br&gt;&lt;/p&gt;&lt;p style=&quot;margin:0px;margin-left:4px;&quot;&gt;+ view_patients()&lt;/p&gt;&lt;p style=&quot;margin:0px;margin-left:4px;&quot;&gt;+ filter_patients(filter_by)&lt;/p&gt;&lt;p style=&quot;margin:0px;margin-left:4px;&quot;&gt;+ view_account(id)&lt;/p&gt;&lt;p style=&quot;margin:0px;margin-left:4px;&quot;&gt;+ delete_account(id)&lt;/p&gt;&lt;p style=&quot;margin:0px;margin-left:4px;&quot;&gt;+ edit_account(id,info_doctor)&lt;/p&gt;&lt;p style=&quot;margin:0px;margin-left:4px;&quot;&gt;&lt;br&gt;&lt;/p&gt;" style="verticalAlign=top;align=left;overflow=fill;fontSize=12;fontFamily=Helvetica;html=1;shadow=1;labelBackgroundColor=#24AB36;fillColor=#FFFFFF;fontColor=#ffffff;strokeColor=#006EAF;" parent="1" vertex="1">
                    <mxGeometry x="460" y="2170" width="180" height="300" as="geometry"/>
                </mxCell>
                <mxCell id="8mFAtVIMX-Jwpf2GcMTn-118" style="edgeStyle=orthogonalEdgeStyle;shape=link;rounded=0;orthogonalLoop=1;jettySize=auto;html=1;exitX=1.015;exitY=0.543;exitDx=0;exitDy=0;entryX=0.5;entryY=1;entryDx=0;entryDy=0;fontSize=22;exitPerimeter=0;" parent="1" source="8mFAtVIMX-Jwpf2GcMTn-86" target="8mFAtVIMX-Jwpf2GcMTn-87" edge="1">
                    <mxGeometry relative="1" as="geometry"/>
                </mxCell>
                <mxCell id="8mFAtVIMX-Jwpf2GcMTn-123" style="edgeStyle=orthogonalEdgeStyle;shape=link;rounded=0;orthogonalLoop=1;jettySize=auto;html=1;exitX=0;exitY=0.5;exitDx=0;exitDy=0;entryX=0.5;entryY=1;entryDx=0;entryDy=0;fontSize=22;" parent="1" source="8mFAtVIMX-Jwpf2GcMTn-86" target="8mFAtVIMX-Jwpf2GcMTn-83" edge="1">
                    <mxGeometry relative="1" as="geometry"/>
                </mxCell>
                <mxCell id="hqhGjSOYNy7_xdbAXnQc-2" style="edgeStyle=orthogonalEdgeStyle;rounded=0;orthogonalLoop=1;jettySize=auto;html=1;entryX=0.5;entryY=1;entryDx=0;entryDy=0;shape=link;" parent="1" source="8mFAtVIMX-Jwpf2GcMTn-86" target="8mFAtVIMX-Jwpf2GcMTn-85" edge="1">
                    <mxGeometry relative="1" as="geometry"/>
                </mxCell>
                <mxCell id="8mFAtVIMX-Jwpf2GcMTn-86" value="&lt;p style=&quot;margin:0px;margin-top:4px;text-align:center;&quot;&gt;&lt;i&gt;&amp;lt;&amp;lt;class&amp;gt;&amp;gt;&lt;/i&gt;&lt;br&gt;&lt;b&gt;session&lt;/b&gt;&lt;/p&gt;&lt;hr size=&quot;1&quot;&gt;&lt;p style=&quot;margin:0px;margin-left:4px;&quot;&gt;+ id : string&lt;br&gt;+ title : string&lt;/p&gt;&lt;p style=&quot;margin:0px;margin-left:4px;&quot;&gt;+ description : string&lt;/p&gt;&lt;p style=&quot;margin:0px;margin-left:4px;&quot;&gt;+ start_date : string&lt;/p&gt;&lt;p style=&quot;margin:0px;margin-left:4px;&quot;&gt;+ end_date : string&lt;/p&gt;&lt;p style=&quot;margin:0px;margin-left:4px;&quot;&gt;+ max_num : int&lt;br&gt;&lt;/p&gt;&lt;hr size=&quot;1&quot;&gt;&lt;p style=&quot;margin:0px;margin-left:4px;&quot;&gt;&lt;br&gt;&lt;/p&gt;" style="verticalAlign=top;align=left;overflow=fill;fontSize=12;fontFamily=Helvetica;html=1;shadow=1;labelBackgroundColor=#24AB36;fillColor=#FFFFFF;fontColor=#ffffff;strokeColor=#006EAF;" parent="1" vertex="1">
                    <mxGeometry x="380" y="2620" width="220" height="160" as="geometry"/>
                </mxCell>
                <mxCell id="8mFAtVIMX-Jwpf2GcMTn-117" style="edgeStyle=none;rounded=0;orthogonalLoop=1;jettySize=auto;html=1;entryX=1;entryY=0.5;entryDx=0;entryDy=0;fontSize=22;shape=link;" parent="1" source="8mFAtVIMX-Jwpf2GcMTn-87" target="8mFAtVIMX-Jwpf2GcMTn-85" edge="1">
                    <mxGeometry relative="1" as="geometry"/>
                </mxCell>
                <mxCell id="8mFAtVIMX-Jwpf2GcMTn-87" value="&lt;p style=&quot;margin:0px;margin-top:4px;text-align:center;&quot;&gt;&lt;i&gt;&amp;lt;&amp;lt;class&amp;gt;&amp;gt;&lt;/i&gt;&lt;br&gt;&lt;b&gt;Patient&lt;/b&gt;&lt;/p&gt;&lt;hr size=&quot;1&quot;&gt;&lt;p style=&quot;margin:0px;margin-left:4px;&quot;&gt;+ birthday: string&lt;br&gt;+ cin: string&lt;/p&gt;&lt;hr size=&quot;1&quot;&gt;&lt;p style=&quot;margin:0px;margin-left:4px;&quot;&gt;&lt;br&gt;&lt;/p&gt;&lt;p style=&quot;margin: 0px 0px 0px 4px;&quot;&gt;+ sign_up(info_patient)&lt;/p&gt;&lt;p style=&quot;margin: 0px 0px 0px 4px;&quot;&gt;+ delete_account(id)&lt;/p&gt;&lt;p style=&quot;margin: 0px 0px 0px 4px;&quot;&gt;+ edit_account(id,info_patient)&lt;/p&gt;&lt;p style=&quot;margin:0px;margin-left:4px;&quot;&gt;+ make_appointment(appointement_id)&lt;/p&gt;&lt;p style=&quot;margin:0px;margin-left:4px;&quot;&gt;+ view_appointments()&lt;/p&gt;&lt;p style=&quot;margin:0px;margin-left:4px;&quot;&gt;+ filter_appointment(filter_by)&lt;/p&gt;&lt;p style=&quot;margin:0px;margin-left:4px;&quot;&gt;+ cancel_appointement(id)&lt;/p&gt;&lt;p style=&quot;margin:0px;margin-left:4px;&quot;&gt;+ view_doctors()&lt;/p&gt;&lt;p style=&quot;margin:0px;margin-left:4px;&quot;&gt;+ search_doctors(search_by)&lt;/p&gt;&lt;p style=&quot;margin:0px;margin-left:4px;&quot;&gt;+ view_sessions()&lt;/p&gt;&lt;p style=&quot;margin:0px;margin-left:4px;&quot;&gt;+ search_sessions(search_by)&lt;/p&gt;" style="verticalAlign=top;align=left;overflow=fill;fontSize=12;fontFamily=Helvetica;html=1;shadow=1;labelBackgroundColor=#24AB36;fillColor=#FFFFFF;fontColor=#ffffff;strokeColor=#006EAF;" parent="1" vertex="1">
                    <mxGeometry x="820" y="2175" width="250" height="290" as="geometry"/>
                </mxCell>
                <mxCell id="8mFAtVIMX-Jwpf2GcMTn-88" value="&lt;p style=&quot;margin:0px;margin-top:4px;text-align:center;&quot;&gt;&lt;i&gt;&amp;lt;&amp;lt;class&amp;gt;&amp;gt;&lt;/i&gt;&lt;br&gt;&lt;b&gt;appointment&lt;/b&gt;&lt;/p&gt;&lt;hr size=&quot;1&quot;&gt;&lt;p style=&quot;margin:0px;margin-left:4px;&quot;&gt;+ id : int&amp;nbsp;&lt;/p&gt;&lt;p style=&quot;margin:0px;margin-left:4px;&quot;&gt;+ booking_date :string&lt;/p&gt;&lt;p style=&quot;margin:0px;margin-left:4px;&quot;&gt;+ ref_num: string&lt;/p&gt;&lt;hr size=&quot;1&quot;&gt;&lt;p style=&quot;margin:0px;margin-left:4px;&quot;&gt;&lt;br&gt;&lt;/p&gt;" style="verticalAlign=top;align=left;overflow=fill;fontSize=12;fontFamily=Helvetica;html=1;shadow=1;labelBackgroundColor=#24AB36;fillColor=#FFFFFF;fontColor=#ffffff;strokeColor=#006EAF;" parent="1" vertex="1">
                    <mxGeometry x="800" y="2761" width="220" height="100" as="geometry"/>
                </mxCell>
                <mxCell id="8mFAtVIMX-Jwpf2GcMTn-89" value="&lt;p style=&quot;margin:0px;margin-top:4px;text-align:center;&quot;&gt;&lt;i&gt;&amp;lt;&amp;lt;class&amp;gt;&amp;gt;&lt;/i&gt;&lt;br&gt;&lt;b&gt;user&lt;/b&gt;&lt;/p&gt;&lt;hr size=&quot;1&quot;&gt;&lt;p style=&quot;margin: 0px 0px 0px 4px;&quot;&gt;+ id : int&lt;br&gt;+ full_name : string&lt;/p&gt;&lt;p style=&quot;margin: 0px 0px 0px 4px;&quot;&gt;+ email : string&lt;/p&gt;&lt;p style=&quot;margin: 0px 0px 0px 4px;&quot;&gt;+ phone: string&lt;br&gt;&lt;/p&gt;&lt;p style=&quot;margin: 0px 0px 0px 4px;&quot;&gt;+ photo : string&lt;br&gt;&lt;/p&gt;&lt;p style=&quot;margin: 0px 0px 0px 4px;&quot;&gt;+ password&amp;nbsp; : string&lt;/p&gt;&lt;hr size=&quot;1&quot;&gt;&lt;p style=&quot;margin:0px;margin-left:4px;&quot;&gt;+ doctors_count()&lt;/p&gt;&lt;p style=&quot;margin:0px;margin-left:4px;&quot;&gt;+ patients_count()&lt;/p&gt;&lt;p style=&quot;margin:0px;margin-left:4px;&quot;&gt;+ new_booking_count()&lt;/p&gt;&lt;p style=&quot;margin:0px;margin-left:4px;&quot;&gt;+ today_sessions_count()&lt;/p&gt;&lt;p style=&quot;margin:0px;margin-left:4px;&quot;&gt;+ login(email,password)&lt;/p&gt;" style="verticalAlign=top;align=left;overflow=fill;fontSize=12;fontFamily=Helvetica;html=1;shadow=1;labelBackgroundColor=#24AB36;fillColor=#FFFFFF;fontColor=#ffffff;strokeColor=#006EAF;" parent="1" vertex="1">
                    <mxGeometry x="440" y="1850" width="220" height="270" as="geometry"/>
                </mxCell>
                <mxCell id="8mFAtVIMX-Jwpf2GcMTn-90" style="edgeStyle=orthogonalEdgeStyle;rounded=0;orthogonalLoop=1;jettySize=auto;html=1;exitX=0.5;exitY=0;exitDx=0;exitDy=0;entryX=0.5;entryY=1;entryDx=0;entryDy=0;fontSize=22;" parent="1" source="8mFAtVIMX-Jwpf2GcMTn-83" target="8mFAtVIMX-Jwpf2GcMTn-89" edge="1">
                    <mxGeometry relative="1" as="geometry"/>
                </mxCell>
                <mxCell id="8mFAtVIMX-Jwpf2GcMTn-91" style="edgeStyle=orthogonalEdgeStyle;rounded=0;orthogonalLoop=1;jettySize=auto;html=1;exitX=0.5;exitY=0;exitDx=0;exitDy=0;entryX=0.5;entryY=1;entryDx=0;entryDy=0;fontSize=22;" parent="1" source="8mFAtVIMX-Jwpf2GcMTn-85" target="8mFAtVIMX-Jwpf2GcMTn-89" edge="1">
                    <mxGeometry relative="1" as="geometry"/>
                </mxCell>
                <mxCell id="8mFAtVIMX-Jwpf2GcMTn-92" style="edgeStyle=orthogonalEdgeStyle;rounded=0;orthogonalLoop=1;jettySize=auto;html=1;entryX=0.5;entryY=1;entryDx=0;entryDy=0;fontSize=22;exitX=0.557;exitY=0.006;exitDx=0;exitDy=0;exitPerimeter=0;" parent="1" source="8mFAtVIMX-Jwpf2GcMTn-87" target="8mFAtVIMX-Jwpf2GcMTn-89" edge="1">
                    <mxGeometry relative="1" as="geometry">
                        <Array as="points">
                            <mxPoint x="959" y="2170"/>
                            <mxPoint x="960" y="2147"/>
                            <mxPoint x="550" y="2147"/>
                        </Array>
                        <mxPoint x="1380" y="2170" as="sourcePoint"/>
                        <mxPoint x="660" y="2117.0000000000005" as="targetPoint"/>
                    </mxGeometry>
                </mxCell>
                <mxCell id="8mFAtVIMX-Jwpf2GcMTn-116" value="" style="group" parent="1" vertex="1" connectable="0">
                    <mxGeometry x="320" y="80" width="835" height="1240" as="geometry"/>
                </mxCell>
                <mxCell id="8mFAtVIMX-Jwpf2GcMTn-1" value="API" style="shape=umlFrame;whiteSpace=wrap;html=1;fillColor=#ffe6cc;strokeColor=#d79b00;" parent="8mFAtVIMX-Jwpf2GcMTn-116" vertex="1">
                    <mxGeometry x="215" y="87.1875" width="620" height="1152.8125" as="geometry"/>
                </mxCell>
                <mxCell id="8mFAtVIMX-Jwpf2GcMTn-2" value="Actor" style="shape=umlActor;verticalLabelPosition=bottom;verticalAlign=top;html=1;" parent="8mFAtVIMX-Jwpf2GcMTn-116" vertex="1">
                    <mxGeometry x="25" y="264.46875" width="30" height="56.1875" as="geometry"/>
                </mxCell>
                <mxCell id="8mFAtVIMX-Jwpf2GcMTn-3" value="Actor" style="shape=umlActor;verticalLabelPosition=bottom;verticalAlign=top;html=1;" parent="8mFAtVIMX-Jwpf2GcMTn-116" vertex="1">
                    <mxGeometry x="25" y="470.8125" width="30" height="58.125" as="geometry"/>
                </mxCell>
                <mxCell id="8mFAtVIMX-Jwpf2GcMTn-43" style="edgeStyle=none;rounded=0;orthogonalLoop=1;jettySize=auto;html=1;exitX=0.5;exitY=0.5;exitDx=0;exitDy=0;exitPerimeter=0;" parent="8mFAtVIMX-Jwpf2GcMTn-116" source="8mFAtVIMX-Jwpf2GcMTn-4" edge="1">
                    <mxGeometry relative="1" as="geometry">
                        <mxPoint x="325" y="402.03125" as="targetPoint"/>
                    </mxGeometry>
                </mxCell>
                <mxCell id="8mFAtVIMX-Jwpf2GcMTn-45" style="edgeStyle=none;rounded=0;orthogonalLoop=1;jettySize=auto;html=1;exitX=0.5;exitY=0.5;exitDx=0;exitDy=0;exitPerimeter=0;" parent="8mFAtVIMX-Jwpf2GcMTn-116" source="8mFAtVIMX-Jwpf2GcMTn-4" edge="1">
                    <mxGeometry relative="1" as="geometry">
                        <mxPoint x="325" y="465" as="targetPoint"/>
                    </mxGeometry>
                </mxCell>
                <mxCell id="8mFAtVIMX-Jwpf2GcMTn-4" value="Actor" style="shape=umlActor;verticalLabelPosition=bottom;verticalAlign=top;html=1;" parent="8mFAtVIMX-Jwpf2GcMTn-116" vertex="1">
                    <mxGeometry x="25" y="678.125" width="30" height="58.125" as="geometry"/>
                </mxCell>
                <mxCell id="8mFAtVIMX-Jwpf2GcMTn-10" value="edit his profile&amp;nbsp;" style="ellipse;whiteSpace=wrap;html=1;fillColor=#d5e8d4;strokeColor=#82b366;" parent="8mFAtVIMX-Jwpf2GcMTn-116" vertex="1">
                    <mxGeometry x="325" y="184.0625" width="140" height="48.4375" as="geometry"/>
                </mxCell>
                <mxCell id="8mFAtVIMX-Jwpf2GcMTn-26" style="edgeStyle=none;rounded=0;orthogonalLoop=1;jettySize=auto;html=1;exitX=0.5;exitY=0.5;exitDx=0;exitDy=0;exitPerimeter=0;entryX=0;entryY=0.5;entryDx=0;entryDy=0;" parent="8mFAtVIMX-Jwpf2GcMTn-116" source="8mFAtVIMX-Jwpf2GcMTn-2" target="8mFAtVIMX-Jwpf2GcMTn-10" edge="1">
                    <mxGeometry relative="1" as="geometry"/>
                </mxCell>
                <mxCell id="8mFAtVIMX-Jwpf2GcMTn-35" style="edgeStyle=none;rounded=0;orthogonalLoop=1;jettySize=auto;html=1;exitX=0.5;exitY=0.5;exitDx=0;exitDy=0;exitPerimeter=0;entryX=0;entryY=0.5;entryDx=0;entryDy=0;" parent="8mFAtVIMX-Jwpf2GcMTn-116" source="8mFAtVIMX-Jwpf2GcMTn-3" target="8mFAtVIMX-Jwpf2GcMTn-10" edge="1">
                    <mxGeometry relative="1" as="geometry"/>
                </mxCell>
                <mxCell id="8mFAtVIMX-Jwpf2GcMTn-11" value="view sessions" style="ellipse;whiteSpace=wrap;html=1;fillColor=#f8cecc;strokeColor=#b85450;" parent="8mFAtVIMX-Jwpf2GcMTn-116" vertex="1">
                    <mxGeometry x="325" y="310" width="140" height="48.4375" as="geometry"/>
                </mxCell>
                <mxCell id="8mFAtVIMX-Jwpf2GcMTn-28" style="edgeStyle=none;rounded=0;orthogonalLoop=1;jettySize=auto;html=1;exitX=0.5;exitY=0.5;exitDx=0;exitDy=0;exitPerimeter=0;entryX=0;entryY=0.5;entryDx=0;entryDy=0;" parent="8mFAtVIMX-Jwpf2GcMTn-116" source="8mFAtVIMX-Jwpf2GcMTn-2" target="8mFAtVIMX-Jwpf2GcMTn-11" edge="1">
                    <mxGeometry relative="1" as="geometry"/>
                </mxCell>
                <mxCell id="8mFAtVIMX-Jwpf2GcMTn-40" style="edgeStyle=none;rounded=0;orthogonalLoop=1;jettySize=auto;html=1;exitX=0.5;exitY=0.5;exitDx=0;exitDy=0;exitPerimeter=0;entryX=0;entryY=0.5;entryDx=0;entryDy=0;" parent="8mFAtVIMX-Jwpf2GcMTn-116" source="8mFAtVIMX-Jwpf2GcMTn-3" target="8mFAtVIMX-Jwpf2GcMTn-11" edge="1">
                    <mxGeometry relative="1" as="geometry"/>
                </mxCell>
                <mxCell id="8mFAtVIMX-Jwpf2GcMTn-41" style="edgeStyle=none;rounded=0;orthogonalLoop=1;jettySize=auto;html=1;exitX=0.5;exitY=0.5;exitDx=0;exitDy=0;exitPerimeter=0;entryX=0;entryY=0.5;entryDx=0;entryDy=0;" parent="8mFAtVIMX-Jwpf2GcMTn-116" source="8mFAtVIMX-Jwpf2GcMTn-4" target="8mFAtVIMX-Jwpf2GcMTn-11" edge="1">
                    <mxGeometry relative="1" as="geometry">
                        <mxPoint x="325" y="343.90625" as="targetPoint"/>
                    </mxGeometry>
                </mxCell>
                <mxCell id="8mFAtVIMX-Jwpf2GcMTn-12" value="book appointment" style="ellipse;whiteSpace=wrap;html=1;fillColor=#fff2cc;strokeColor=#d6b656;" parent="8mFAtVIMX-Jwpf2GcMTn-116" vertex="1">
                    <mxGeometry x="315" y="513.4375" width="160" height="48.4375" as="geometry"/>
                </mxCell>
                <mxCell id="8mFAtVIMX-Jwpf2GcMTn-30" style="edgeStyle=none;rounded=0;orthogonalLoop=1;jettySize=auto;html=1;exitX=0.5;exitY=0.5;exitDx=0;exitDy=0;exitPerimeter=0;entryX=0;entryY=0.5;entryDx=0;entryDy=0;" parent="8mFAtVIMX-Jwpf2GcMTn-116" source="8mFAtVIMX-Jwpf2GcMTn-2" target="8mFAtVIMX-Jwpf2GcMTn-12" edge="1">
                    <mxGeometry relative="1" as="geometry"/>
                </mxCell>
                <mxCell id="8mFAtVIMX-Jwpf2GcMTn-13" value="cancel session" style="ellipse;whiteSpace=wrap;html=1;fillColor=#e1d5e7;strokeColor=#9673a6;" parent="8mFAtVIMX-Jwpf2GcMTn-116" vertex="1">
                    <mxGeometry x="325" y="440.78125" width="140" height="48.4375" as="geometry"/>
                </mxCell>
                <mxCell id="8mFAtVIMX-Jwpf2GcMTn-44" style="edgeStyle=none;rounded=0;orthogonalLoop=1;jettySize=auto;html=1;exitX=0.5;exitY=0.5;exitDx=0;exitDy=0;exitPerimeter=0;entryX=0;entryY=0.5;entryDx=0;entryDy=0;" parent="8mFAtVIMX-Jwpf2GcMTn-116" source="8mFAtVIMX-Jwpf2GcMTn-3" target="8mFAtVIMX-Jwpf2GcMTn-13" edge="1">
                    <mxGeometry relative="1" as="geometry"/>
                </mxCell>
                <mxCell id="8mFAtVIMX-Jwpf2GcMTn-14" value="cancel appointment" style="ellipse;whiteSpace=wrap;html=1;fillColor=#f8cecc;strokeColor=#b85450;" parent="8mFAtVIMX-Jwpf2GcMTn-116" vertex="1">
                    <mxGeometry x="325" y="581.25" width="140" height="48.4375" as="geometry"/>
                </mxCell>
                <mxCell id="8mFAtVIMX-Jwpf2GcMTn-31" style="edgeStyle=none;rounded=0;orthogonalLoop=1;jettySize=auto;html=1;exitX=0.5;exitY=0.5;exitDx=0;exitDy=0;exitPerimeter=0;entryX=0;entryY=0.5;entryDx=0;entryDy=0;" parent="8mFAtVIMX-Jwpf2GcMTn-116" source="8mFAtVIMX-Jwpf2GcMTn-2" target="8mFAtVIMX-Jwpf2GcMTn-14" edge="1">
                    <mxGeometry relative="1" as="geometry"/>
                </mxCell>
                <mxCell id="8mFAtVIMX-Jwpf2GcMTn-46" style="edgeStyle=none;rounded=0;orthogonalLoop=1;jettySize=auto;html=1;exitX=0.5;exitY=0.5;exitDx=0;exitDy=0;exitPerimeter=0;entryX=0;entryY=0.5;entryDx=0;entryDy=0;" parent="8mFAtVIMX-Jwpf2GcMTn-116" source="8mFAtVIMX-Jwpf2GcMTn-3" target="8mFAtVIMX-Jwpf2GcMTn-14" edge="1">
                    <mxGeometry relative="1" as="geometry"/>
                </mxCell>
                <mxCell id="8mFAtVIMX-Jwpf2GcMTn-47" style="edgeStyle=none;rounded=0;orthogonalLoop=1;jettySize=auto;html=1;exitX=0.5;exitY=0.5;exitDx=0;exitDy=0;exitPerimeter=0;entryX=0;entryY=0.5;entryDx=0;entryDy=0;" parent="8mFAtVIMX-Jwpf2GcMTn-116" source="8mFAtVIMX-Jwpf2GcMTn-4" target="8mFAtVIMX-Jwpf2GcMTn-14" edge="1">
                    <mxGeometry relative="1" as="geometry"/>
                </mxCell>
                <mxCell id="8mFAtVIMX-Jwpf2GcMTn-15" value="view medcin list" style="ellipse;whiteSpace=wrap;html=1;fillColor=#f8cecc;strokeColor=#b85450;" parent="8mFAtVIMX-Jwpf2GcMTn-116" vertex="1">
                    <mxGeometry x="325" y="639.375" width="140" height="48.4375" as="geometry"/>
                </mxCell>
                <mxCell id="8mFAtVIMX-Jwpf2GcMTn-32" style="edgeStyle=none;rounded=0;orthogonalLoop=1;jettySize=auto;html=1;exitX=0.5;exitY=0.5;exitDx=0;exitDy=0;exitPerimeter=0;entryX=0;entryY=0.5;entryDx=0;entryDy=0;" parent="8mFAtVIMX-Jwpf2GcMTn-116" source="8mFAtVIMX-Jwpf2GcMTn-2" target="8mFAtVIMX-Jwpf2GcMTn-15" edge="1">
                    <mxGeometry relative="1" as="geometry"/>
                </mxCell>
                <mxCell id="8mFAtVIMX-Jwpf2GcMTn-50" style="edgeStyle=none;rounded=0;orthogonalLoop=1;jettySize=auto;html=1;exitX=0.5;exitY=0.5;exitDx=0;exitDy=0;exitPerimeter=0;entryX=0;entryY=0.5;entryDx=0;entryDy=0;" parent="8mFAtVIMX-Jwpf2GcMTn-116" source="8mFAtVIMX-Jwpf2GcMTn-3" target="8mFAtVIMX-Jwpf2GcMTn-15" edge="1">
                    <mxGeometry relative="1" as="geometry"/>
                </mxCell>
                <mxCell id="8mFAtVIMX-Jwpf2GcMTn-52" style="edgeStyle=none;rounded=0;orthogonalLoop=1;jettySize=auto;html=1;exitX=0.5;exitY=0.5;exitDx=0;exitDy=0;exitPerimeter=0;entryX=0;entryY=0.5;entryDx=0;entryDy=0;" parent="8mFAtVIMX-Jwpf2GcMTn-116" source="8mFAtVIMX-Jwpf2GcMTn-4" target="8mFAtVIMX-Jwpf2GcMTn-15" edge="1">
                    <mxGeometry relative="1" as="geometry"/>
                </mxCell>
                <mxCell id="8mFAtVIMX-Jwpf2GcMTn-17" value="view appointment" style="ellipse;whiteSpace=wrap;html=1;fillColor=#f8cecc;strokeColor=#b85450;" parent="8mFAtVIMX-Jwpf2GcMTn-116" vertex="1">
                    <mxGeometry x="325" y="377.8125" width="140" height="48.4375" as="geometry"/>
                </mxCell>
                <mxCell id="8mFAtVIMX-Jwpf2GcMTn-29" style="edgeStyle=none;rounded=0;orthogonalLoop=1;jettySize=auto;html=1;exitX=0.5;exitY=0.5;exitDx=0;exitDy=0;exitPerimeter=0;entryX=0;entryY=0.5;entryDx=0;entryDy=0;" parent="8mFAtVIMX-Jwpf2GcMTn-116" source="8mFAtVIMX-Jwpf2GcMTn-2" target="8mFAtVIMX-Jwpf2GcMTn-17" edge="1">
                    <mxGeometry relative="1" as="geometry"/>
                </mxCell>
                <mxCell id="8mFAtVIMX-Jwpf2GcMTn-42" style="edgeStyle=none;rounded=0;orthogonalLoop=1;jettySize=auto;html=1;exitX=0.5;exitY=0.5;exitDx=0;exitDy=0;exitPerimeter=0;entryX=0;entryY=0.5;entryDx=0;entryDy=0;" parent="8mFAtVIMX-Jwpf2GcMTn-116" source="8mFAtVIMX-Jwpf2GcMTn-3" target="8mFAtVIMX-Jwpf2GcMTn-17" edge="1">
                    <mxGeometry relative="1" as="geometry"/>
                </mxCell>
                <mxCell id="8mFAtVIMX-Jwpf2GcMTn-18" value="add a medcin" style="ellipse;whiteSpace=wrap;html=1;fillColor=#f5f5f5;fontColor=#333333;strokeColor=#666666;" parent="8mFAtVIMX-Jwpf2GcMTn-116" vertex="1">
                    <mxGeometry x="325" y="707.1875" width="140" height="48.4375" as="geometry"/>
                </mxCell>
                <mxCell id="8mFAtVIMX-Jwpf2GcMTn-53" style="edgeStyle=none;rounded=0;orthogonalLoop=1;jettySize=auto;html=1;exitX=0.5;exitY=0.5;exitDx=0;exitDy=0;exitPerimeter=0;entryX=0;entryY=0.5;entryDx=0;entryDy=0;" parent="8mFAtVIMX-Jwpf2GcMTn-116" source="8mFAtVIMX-Jwpf2GcMTn-4" target="8mFAtVIMX-Jwpf2GcMTn-18" edge="1">
                    <mxGeometry relative="1" as="geometry"/>
                </mxCell>
                <mxCell id="8mFAtVIMX-Jwpf2GcMTn-19" value="delete a session" style="ellipse;whiteSpace=wrap;html=1;fillColor=#f5f5f5;fontColor=#333333;strokeColor=#666666;" parent="8mFAtVIMX-Jwpf2GcMTn-116" vertex="1">
                    <mxGeometry x="325" y="1075.3125" width="140" height="48.4375" as="geometry"/>
                </mxCell>
                <mxCell id="8mFAtVIMX-Jwpf2GcMTn-54" style="edgeStyle=none;rounded=0;orthogonalLoop=1;jettySize=auto;html=1;exitX=0.5;exitY=0.5;exitDx=0;exitDy=0;exitPerimeter=0;entryX=0;entryY=0.5;entryDx=0;entryDy=0;" parent="8mFAtVIMX-Jwpf2GcMTn-116" source="8mFAtVIMX-Jwpf2GcMTn-4" target="8mFAtVIMX-Jwpf2GcMTn-19" edge="1">
                    <mxGeometry relative="1" as="geometry"/>
                </mxCell>
                <mxCell id="8mFAtVIMX-Jwpf2GcMTn-20" value="view patients" style="ellipse;whiteSpace=wrap;html=1;fillColor=#e1d5e7;strokeColor=#9673a6;" parent="8mFAtVIMX-Jwpf2GcMTn-116" vertex="1">
                    <mxGeometry x="322" y="1133.4375" width="140" height="48.4375" as="geometry"/>
                </mxCell>
                <mxCell id="8mFAtVIMX-Jwpf2GcMTn-51" style="edgeStyle=none;rounded=0;orthogonalLoop=1;jettySize=auto;html=1;exitX=0.5;exitY=0.5;exitDx=0;exitDy=0;exitPerimeter=0;entryX=0;entryY=0.5;entryDx=0;entryDy=0;" parent="8mFAtVIMX-Jwpf2GcMTn-116" source="8mFAtVIMX-Jwpf2GcMTn-3" target="8mFAtVIMX-Jwpf2GcMTn-20" edge="1">
                    <mxGeometry relative="1" as="geometry"/>
                </mxCell>
                <mxCell id="8mFAtVIMX-Jwpf2GcMTn-55" style="edgeStyle=none;rounded=0;orthogonalLoop=1;jettySize=auto;html=1;exitX=0.5;exitY=0.5;exitDx=0;exitDy=0;exitPerimeter=0;entryX=0;entryY=0.5;entryDx=0;entryDy=0;" parent="8mFAtVIMX-Jwpf2GcMTn-116" source="8mFAtVIMX-Jwpf2GcMTn-4" target="8mFAtVIMX-Jwpf2GcMTn-20" edge="1">
                    <mxGeometry relative="1" as="geometry"/>
                </mxCell>
                <mxCell id="8mFAtVIMX-Jwpf2GcMTn-22" value="patient" style="rounded=1;whiteSpace=wrap;html=1;fillColor=#fff2cc;strokeColor=#d6b656;" parent="8mFAtVIMX-Jwpf2GcMTn-116" vertex="1">
                    <mxGeometry y="327.4375" width="80" height="19.375" as="geometry"/>
                </mxCell>
                <mxCell id="8mFAtVIMX-Jwpf2GcMTn-23" value="doctor" style="rounded=1;whiteSpace=wrap;html=1;fillColor=#e1d5e7;strokeColor=#9673a6;" parent="8mFAtVIMX-Jwpf2GcMTn-116" vertex="1">
                    <mxGeometry y="537.65625" width="80" height="19.375" as="geometry"/>
                </mxCell>
                <mxCell id="8mFAtVIMX-Jwpf2GcMTn-24" value="admin" style="rounded=1;whiteSpace=wrap;html=1;fillColor=#f5f5f5;fontColor=#333333;strokeColor=#666666;" parent="8mFAtVIMX-Jwpf2GcMTn-116" vertex="1">
                    <mxGeometry y="740.125" width="80" height="19.375" as="geometry"/>
                </mxCell>
                <mxCell id="8mFAtVIMX-Jwpf2GcMTn-59" value="connect" style="ellipse;whiteSpace=wrap;html=1;fillColor=#fff2cc;strokeColor=#d6b656;" parent="8mFAtVIMX-Jwpf2GcMTn-116" vertex="1">
                    <mxGeometry x="695" y="489.21875" width="120" height="48.4375" as="geometry"/>
                </mxCell>
                <mxCell id="8mFAtVIMX-Jwpf2GcMTn-63" value="include" style="endArrow=open;endSize=12;dashed=1;html=1;rounded=0;" parent="8mFAtVIMX-Jwpf2GcMTn-116" target="8mFAtVIMX-Jwpf2GcMTn-59" edge="1">
                    <mxGeometry width="160" relative="1" as="geometry">
                        <mxPoint x="465" y="604.984375" as="sourcePoint"/>
                        <mxPoint x="586" y="605.3525" as="targetPoint"/>
                    </mxGeometry>
                </mxCell>
                <mxCell id="8mFAtVIMX-Jwpf2GcMTn-66" value="include" style="endArrow=open;endSize=12;dashed=1;html=1;rounded=0;" parent="8mFAtVIMX-Jwpf2GcMTn-116" target="8mFAtVIMX-Jwpf2GcMTn-59" edge="1">
                    <mxGeometry width="160" relative="1" as="geometry">
                        <mxPoint x="475" y="537.5496875" as="sourcePoint"/>
                        <mxPoint x="736.4866649622945" y="460.2536046673258" as="targetPoint"/>
                    </mxGeometry>
                </mxCell>
                <mxCell id="8mFAtVIMX-Jwpf2GcMTn-67" value="include" style="endArrow=open;endSize=12;dashed=1;html=1;rounded=0;" parent="8mFAtVIMX-Jwpf2GcMTn-116" edge="1">
                    <mxGeometry width="160" relative="1" as="geometry">
                        <mxPoint x="465" y="460.2434374999999" as="sourcePoint"/>
                        <mxPoint x="695" y="513.4375" as="targetPoint"/>
                    </mxGeometry>
                </mxCell>
                <mxCell id="8mFAtVIMX-Jwpf2GcMTn-68" value="include" style="endArrow=open;endSize=12;dashed=1;html=1;rounded=0;entryX=0;entryY=0.5;entryDx=0;entryDy=0;" parent="8mFAtVIMX-Jwpf2GcMTn-116" target="8mFAtVIMX-Jwpf2GcMTn-59" edge="1">
                    <mxGeometry width="160" relative="1" as="geometry">
                        <mxPoint x="465" y="406.8749999999999" as="sourcePoint"/>
                        <mxPoint x="715" y="455.2253125" as="targetPoint"/>
                    </mxGeometry>
                </mxCell>
                <mxCell id="8mFAtVIMX-Jwpf2GcMTn-69" value="include" style="endArrow=open;endSize=12;dashed=1;html=1;rounded=0;entryX=0.083;entryY=0.3;entryDx=0;entryDy=0;entryPerimeter=0;exitX=1;exitY=0.5;exitDx=0;exitDy=0;" parent="8mFAtVIMX-Jwpf2GcMTn-116" source="8mFAtVIMX-Jwpf2GcMTn-11" target="8mFAtVIMX-Jwpf2GcMTn-59" edge="1">
                    <mxGeometry width="160" relative="1" as="geometry">
                        <mxPoint x="465" y="348.75" as="sourcePoint"/>
                        <mxPoint x="715" y="513.4375" as="targetPoint"/>
                    </mxGeometry>
                </mxCell>
                <mxCell id="8mFAtVIMX-Jwpf2GcMTn-71" value="include" style="endArrow=open;endSize=12;dashed=1;html=1;rounded=0;" parent="8mFAtVIMX-Jwpf2GcMTn-116" edge="1">
                    <mxGeometry width="160" relative="1" as="geometry">
                        <mxPoint x="465" y="210.32531250000002" as="sourcePoint"/>
                        <mxPoint x="705" y="503.75" as="targetPoint"/>
                    </mxGeometry>
                </mxCell>
                <mxCell id="8mFAtVIMX-Jwpf2GcMTn-73" value="include" style="endArrow=open;endSize=12;dashed=1;html=1;rounded=0;entryX=0.101;entryY=0.849;entryDx=0;entryDy=0;entryPerimeter=0;" parent="8mFAtVIMX-Jwpf2GcMTn-116" target="8mFAtVIMX-Jwpf2GcMTn-59" edge="1">
                    <mxGeometry width="160" relative="1" as="geometry">
                        <mxPoint x="465" y="668.3309375" as="sourcePoint"/>
                        <mxPoint x="726.4866649622945" y="591.0348546673258" as="targetPoint"/>
                    </mxGeometry>
                </mxCell>
                <mxCell id="8mFAtVIMX-Jwpf2GcMTn-74" value="include" style="endArrow=open;endSize=12;dashed=1;html=1;rounded=0;entryX=0.086;entryY=0.862;entryDx=0;entryDy=0;entryPerimeter=0;exitX=1;exitY=0.5;exitDx=0;exitDy=0;" parent="8mFAtVIMX-Jwpf2GcMTn-116" source="8mFAtVIMX-Jwpf2GcMTn-18" target="8mFAtVIMX-Jwpf2GcMTn-59" edge="1">
                    <mxGeometry width="160" relative="1" as="geometry">
                        <mxPoint x="465" y="736.4921874999999" as="sourcePoint"/>
                        <mxPoint x="743.44" y="602.3300000000002" as="targetPoint"/>
                    </mxGeometry>
                </mxCell>
                <mxCell id="8mFAtVIMX-Jwpf2GcMTn-75" value="include" style="endArrow=open;endSize=12;dashed=1;html=1;rounded=0;entryX=0.224;entryY=0.96;entryDx=0;entryDy=0;entryPerimeter=0;exitX=1;exitY=0.5;exitDx=0;exitDy=0;" parent="8mFAtVIMX-Jwpf2GcMTn-116" source="8mFAtVIMX-Jwpf2GcMTn-19" target="8mFAtVIMX-Jwpf2GcMTn-59" edge="1">
                    <mxGeometry width="160" relative="1" as="geometry">
                        <mxPoint x="465" y="811.0859375" as="sourcePoint"/>
                        <mxPoint x="758" y="542.5" as="targetPoint"/>
                    </mxGeometry>
                </mxCell>
                <mxCell id="8mFAtVIMX-Jwpf2GcMTn-76" value="include" style="endArrow=open;endSize=12;dashed=1;html=1;rounded=0;exitX=1;exitY=0.5;exitDx=0;exitDy=0;" parent="8mFAtVIMX-Jwpf2GcMTn-116" source="8mFAtVIMX-Jwpf2GcMTn-20" edge="1">
                    <mxGeometry width="160" relative="1" as="geometry">
                        <mxPoint x="465" y="877.8134375" as="sourcePoint"/>
                        <mxPoint x="725" y="532.8125" as="targetPoint"/>
                    </mxGeometry>
                </mxCell>
                <mxCell id="8mFAtVIMX-Jwpf2GcMTn-81" value="&lt;span style=&quot;font-size: 22px;&quot;&gt;use case&lt;/span&gt;" style="rounded=1;whiteSpace=wrap;html=1;shadow=1;fillColor=#60a917;strokeColor=#2D7600;fontColor=#ffffff;" parent="8mFAtVIMX-Jwpf2GcMTn-116" vertex="1">
                    <mxGeometry x="235" width="340" height="58.125" as="geometry"/>
                </mxCell>
                <mxCell id="8mFAtVIMX-Jwpf2GcMTn-94" value="delete his profile" style="ellipse;whiteSpace=wrap;html=1;fillColor=#d5e8d4;strokeColor=#82b366;" parent="8mFAtVIMX-Jwpf2GcMTn-116" vertex="1">
                    <mxGeometry x="325" y="251.875" width="140" height="48.4375" as="geometry"/>
                </mxCell>
                <mxCell id="8mFAtVIMX-Jwpf2GcMTn-97" style="edgeStyle=none;rounded=0;orthogonalLoop=1;jettySize=auto;html=1;exitX=0.5;exitY=0.5;exitDx=0;exitDy=0;exitPerimeter=0;entryX=0;entryY=0.5;entryDx=0;entryDy=0;fontSize=22;" parent="8mFAtVIMX-Jwpf2GcMTn-116" source="8mFAtVIMX-Jwpf2GcMTn-2" target="8mFAtVIMX-Jwpf2GcMTn-94" edge="1">
                    <mxGeometry relative="1" as="geometry"/>
                </mxCell>
                <mxCell id="8mFAtVIMX-Jwpf2GcMTn-98" style="edgeStyle=none;rounded=0;orthogonalLoop=1;jettySize=auto;html=1;exitX=0.5;exitY=0.5;exitDx=0;exitDy=0;exitPerimeter=0;entryX=0;entryY=0.5;entryDx=0;entryDy=0;fontSize=22;" parent="8mFAtVIMX-Jwpf2GcMTn-116" source="8mFAtVIMX-Jwpf2GcMTn-3" target="8mFAtVIMX-Jwpf2GcMTn-94" edge="1">
                    <mxGeometry relative="1" as="geometry"/>
                </mxCell>
                <mxCell id="8mFAtVIMX-Jwpf2GcMTn-95" value="view his profile" style="ellipse;whiteSpace=wrap;html=1;fillColor=#d5e8d4;strokeColor=#82b366;" parent="8mFAtVIMX-Jwpf2GcMTn-116" vertex="1">
                    <mxGeometry x="325" y="125.9375" width="140" height="48.4375" as="geometry"/>
                </mxCell>
                <mxCell id="8mFAtVIMX-Jwpf2GcMTn-96" style="rounded=0;orthogonalLoop=1;jettySize=auto;html=1;exitX=0.5;exitY=0.5;exitDx=0;exitDy=0;exitPerimeter=0;entryX=0;entryY=0.5;entryDx=0;entryDy=0;fontSize=22;" parent="8mFAtVIMX-Jwpf2GcMTn-116" source="8mFAtVIMX-Jwpf2GcMTn-2" target="8mFAtVIMX-Jwpf2GcMTn-95" edge="1">
                    <mxGeometry relative="1" as="geometry"/>
                </mxCell>
                <mxCell id="8mFAtVIMX-Jwpf2GcMTn-99" style="edgeStyle=none;rounded=0;orthogonalLoop=1;jettySize=auto;html=1;exitX=0.5;exitY=0.5;exitDx=0;exitDy=0;exitPerimeter=0;entryX=0;entryY=0.5;entryDx=0;entryDy=0;fontSize=22;" parent="8mFAtVIMX-Jwpf2GcMTn-116" source="8mFAtVIMX-Jwpf2GcMTn-3" target="8mFAtVIMX-Jwpf2GcMTn-95" edge="1">
                    <mxGeometry relative="1" as="geometry"/>
                </mxCell>
                <mxCell id="8mFAtVIMX-Jwpf2GcMTn-101" value="edit a medcin" style="ellipse;whiteSpace=wrap;html=1;fillColor=#f5f5f5;fontColor=#333333;strokeColor=#666666;" parent="8mFAtVIMX-Jwpf2GcMTn-116" vertex="1">
                    <mxGeometry x="322" y="775" width="140" height="48.4375" as="geometry"/>
                </mxCell>
                <mxCell id="8mFAtVIMX-Jwpf2GcMTn-105" style="edgeStyle=none;rounded=0;orthogonalLoop=1;jettySize=auto;html=1;exitX=0.5;exitY=0.5;exitDx=0;exitDy=0;exitPerimeter=0;entryX=0;entryY=0.5;entryDx=0;entryDy=0;fontSize=22;" parent="8mFAtVIMX-Jwpf2GcMTn-116" source="8mFAtVIMX-Jwpf2GcMTn-4" target="8mFAtVIMX-Jwpf2GcMTn-101" edge="1">
                    <mxGeometry relative="1" as="geometry"/>
                </mxCell>
                <mxCell id="8mFAtVIMX-Jwpf2GcMTn-102" value="delete a medcin" style="ellipse;whiteSpace=wrap;html=1;fillColor=#f5f5f5;fontColor=#333333;strokeColor=#666666;" parent="8mFAtVIMX-Jwpf2GcMTn-116" vertex="1">
                    <mxGeometry x="321" y="842.8125" width="140" height="48.4375" as="geometry"/>
                </mxCell>
                <mxCell id="8mFAtVIMX-Jwpf2GcMTn-103" value="edit a session" style="ellipse;whiteSpace=wrap;html=1;fillColor=#f5f5f5;fontColor=#333333;strokeColor=#666666;" parent="8mFAtVIMX-Jwpf2GcMTn-116" vertex="1">
                    <mxGeometry x="322" y="988.125" width="140" height="48.4375" as="geometry"/>
                </mxCell>
                <mxCell id="8mFAtVIMX-Jwpf2GcMTn-104" value="add a session" style="ellipse;whiteSpace=wrap;html=1;fillColor=#f5f5f5;fontColor=#333333;strokeColor=#666666;" parent="8mFAtVIMX-Jwpf2GcMTn-116" vertex="1">
                    <mxGeometry x="322" y="910.625" width="140" height="48.4375" as="geometry"/>
                </mxCell>
                <mxCell id="8mFAtVIMX-Jwpf2GcMTn-109" value="include" style="endArrow=open;endSize=12;dashed=1;html=1;rounded=0;entryX=0.086;entryY=0.862;entryDx=0;entryDy=0;entryPerimeter=0;exitX=1;exitY=0.5;exitDx=0;exitDy=0;" parent="8mFAtVIMX-Jwpf2GcMTn-116" source="8mFAtVIMX-Jwpf2GcMTn-101" edge="1">
                    <mxGeometry width="160" relative="1" as="geometry">
                        <mxPoint x="475" y="741.09375" as="sourcePoint"/>
                        <mxPoint x="715.3199999999999" y="540.6593750000002" as="targetPoint"/>
                    </mxGeometry>
                </mxCell>
                <mxCell id="8mFAtVIMX-Jwpf2GcMTn-110" value="include" style="endArrow=open;endSize=12;dashed=1;html=1;rounded=0;entryX=0.086;entryY=0.862;entryDx=0;entryDy=0;entryPerimeter=0;exitX=1;exitY=0.5;exitDx=0;exitDy=0;" parent="8mFAtVIMX-Jwpf2GcMTn-116" source="8mFAtVIMX-Jwpf2GcMTn-102" edge="1">
                    <mxGeometry width="160" relative="1" as="geometry">
                        <mxPoint x="472" y="808.90625" as="sourcePoint"/>
                        <mxPoint x="725.3199999999999" y="550.3468750000002" as="targetPoint"/>
                    </mxGeometry>
                </mxCell>
                <mxCell id="8mFAtVIMX-Jwpf2GcMTn-111" value="include" style="endArrow=open;endSize=12;dashed=1;html=1;rounded=0;entryX=0.3;entryY=1.025;entryDx=0;entryDy=0;entryPerimeter=0;exitX=1;exitY=0.5;exitDx=0;exitDy=0;" parent="8mFAtVIMX-Jwpf2GcMTn-116" source="8mFAtVIMX-Jwpf2GcMTn-103" target="8mFAtVIMX-Jwpf2GcMTn-59" edge="1">
                    <mxGeometry width="160" relative="1" as="geometry">
                        <mxPoint x="470.9999999999998" y="876.71875" as="sourcePoint"/>
                        <mxPoint x="735.3199999999999" y="560.0343750000002" as="targetPoint"/>
                    </mxGeometry>
                </mxCell>
                <mxCell id="8mFAtVIMX-Jwpf2GcMTn-112" value="include" style="endArrow=open;endSize=12;dashed=1;html=1;rounded=0;exitX=1;exitY=0.5;exitDx=0;exitDy=0;" parent="8mFAtVIMX-Jwpf2GcMTn-116" source="8mFAtVIMX-Jwpf2GcMTn-104" edge="1">
                    <mxGeometry width="160" relative="1" as="geometry">
                        <mxPoint x="480.9999999999998" y="886.40625" as="sourcePoint"/>
                        <mxPoint x="715" y="532.8125" as="targetPoint"/>
                    </mxGeometry>
                </mxCell>
                <mxCell id="8mFAtVIMX-Jwpf2GcMTn-113" value="include" style="endArrow=open;endSize=12;dashed=1;html=1;rounded=0;exitX=1;exitY=0.5;exitDx=0;exitDy=0;entryX=0.081;entryY=0.185;entryDx=0;entryDy=0;entryPerimeter=0;" parent="8mFAtVIMX-Jwpf2GcMTn-116" source="8mFAtVIMX-Jwpf2GcMTn-95" target="8mFAtVIMX-Jwpf2GcMTn-59" edge="1">
                    <mxGeometry width="160" relative="1" as="geometry">
                        <mxPoint x="475" y="220.01281250000002" as="sourcePoint"/>
                        <mxPoint x="715" y="513.4375" as="targetPoint"/>
                    </mxGeometry>
                </mxCell>
                <mxCell id="8mFAtVIMX-Jwpf2GcMTn-106" style="edgeStyle=none;rounded=0;orthogonalLoop=1;jettySize=auto;html=1;exitX=0.5;exitY=0.5;exitDx=0;exitDy=0;exitPerimeter=0;entryX=0;entryY=0.5;entryDx=0;entryDy=0;fontSize=22;" parent="8mFAtVIMX-Jwpf2GcMTn-116" source="8mFAtVIMX-Jwpf2GcMTn-4" target="8mFAtVIMX-Jwpf2GcMTn-102" edge="1">
                    <mxGeometry relative="1" as="geometry"/>
                </mxCell>
                <mxCell id="8mFAtVIMX-Jwpf2GcMTn-108" style="edgeStyle=none;rounded=0;orthogonalLoop=1;jettySize=auto;html=1;exitX=0.5;exitY=0.5;exitDx=0;exitDy=0;exitPerimeter=0;entryX=0;entryY=0.5;entryDx=0;entryDy=0;fontSize=22;" parent="8mFAtVIMX-Jwpf2GcMTn-116" source="8mFAtVIMX-Jwpf2GcMTn-4" target="8mFAtVIMX-Jwpf2GcMTn-103" edge="1">
                    <mxGeometry relative="1" as="geometry"/>
                </mxCell>
                <mxCell id="8mFAtVIMX-Jwpf2GcMTn-107" style="edgeStyle=none;rounded=0;orthogonalLoop=1;jettySize=auto;html=1;exitX=0.5;exitY=0.5;exitDx=0;exitDy=0;exitPerimeter=0;entryX=0;entryY=0.5;entryDx=0;entryDy=0;fontSize=22;" parent="8mFAtVIMX-Jwpf2GcMTn-116" source="8mFAtVIMX-Jwpf2GcMTn-4" target="8mFAtVIMX-Jwpf2GcMTn-104" edge="1">
                    <mxGeometry relative="1" as="geometry"/>
                </mxCell>
                <mxCell id="8mFAtVIMX-Jwpf2GcMTn-120" value="" style="endArrow=none;dashed=1;html=1;dashPattern=1 3;strokeWidth=2;rounded=0;fontSize=22;exitX=0.5;exitY=0;exitDx=0;exitDy=0;" parent="1" source="8mFAtVIMX-Jwpf2GcMTn-88" edge="1">
                    <mxGeometry width="50" height="50" relative="1" as="geometry">
                        <mxPoint x="700" y="2520" as="sourcePoint"/>
                        <mxPoint x="910" y="2710" as="targetPoint"/>
                    </mxGeometry>
                </mxCell>
                <mxCell id="8mFAtVIMX-Jwpf2GcMTn-125" value="(1,1)" style="text;align=center;fontStyle=1;verticalAlign=middle;spacingLeft=3;spacingRight=3;strokeColor=none;rotatable=0;points=[[0,0.5],[1,0.5]];portConstraint=eastwest;shadow=1;labelBackgroundColor=#FFFFFF;fontSize=18;fillColor=none;" parent="1" vertex="1">
                    <mxGeometry x="545" y="2472" width="80" height="26" as="geometry"/>
                </mxCell>
                <mxCell id="8mFAtVIMX-Jwpf2GcMTn-126" value="(1,*)" style="text;align=center;fontStyle=1;verticalAlign=middle;spacingLeft=3;spacingRight=3;strokeColor=none;rotatable=0;points=[[0,0.5],[1,0.5]];portConstraint=eastwest;shadow=1;labelBackgroundColor=#FFFFFF;fontSize=18;fillColor=none;" parent="1" vertex="1">
                    <mxGeometry x="590" y="2715" width="80" height="26" as="geometry"/>
                </mxCell>
                <mxCell id="8mFAtVIMX-Jwpf2GcMTn-127" value="(1,*)" style="text;align=center;fontStyle=1;verticalAlign=middle;spacingLeft=3;spacingRight=3;strokeColor=none;rotatable=0;points=[[0,0.5],[1,0.5]];portConstraint=eastwest;shadow=1;labelBackgroundColor=#FFFFFF;fontSize=18;fillColor=none;" parent="1" vertex="1">
                    <mxGeometry x="310" y="2650" width="80" height="40" as="geometry"/>
                </mxCell>
                <mxCell id="8mFAtVIMX-Jwpf2GcMTn-129" value="(1,1)" style="text;align=center;fontStyle=1;verticalAlign=middle;spacingLeft=3;spacingRight=3;strokeColor=none;rotatable=0;points=[[0,0.5],[1,0.5]];portConstraint=eastwest;shadow=1;labelBackgroundColor=#FFFFFF;fontSize=18;fillColor=none;" parent="1" vertex="1">
                    <mxGeometry x="80" y="2470" width="80" height="40" as="geometry"/>
                </mxCell>
                <mxCell id="8mFAtVIMX-Jwpf2GcMTn-130" value="(1,1)" style="text;align=center;fontStyle=1;verticalAlign=middle;spacingLeft=3;spacingRight=3;strokeColor=none;rotatable=0;points=[[0,0.5],[1,0.5]];portConstraint=eastwest;shadow=1;labelBackgroundColor=#FFFFFF;fontSize=18;fillColor=none;" parent="1" vertex="1">
                    <mxGeometry x="1310" y="2465" width="80" height="40" as="geometry"/>
                </mxCell>
                <mxCell id="8mFAtVIMX-Jwpf2GcMTn-131" value="(1,*)" style="text;align=center;fontStyle=1;verticalAlign=middle;spacingLeft=3;spacingRight=3;strokeColor=none;rotatable=0;points=[[0,0.5],[1,0.5]];portConstraint=eastwest;shadow=1;labelBackgroundColor=#FFFFFF;fontSize=18;fillColor=none;" parent="1" vertex="1">
                    <mxGeometry x="486" y="2590" width="80" height="26" as="geometry"/>
                </mxCell>
                <mxCell id="8mFAtVIMX-Jwpf2GcMTn-132" value="(1,*)" style="text;align=center;fontStyle=1;verticalAlign=middle;spacingLeft=3;spacingRight=3;strokeColor=none;rotatable=0;points=[[0,0.5],[1,0.5]];portConstraint=eastwest;shadow=1;labelBackgroundColor=#FFFFFF;fontSize=18;fillColor=none;" parent="1" vertex="1">
                    <mxGeometry x="750" y="2273" width="80" height="40" as="geometry"/>
                </mxCell>
                <mxCell id="8mFAtVIMX-Jwpf2GcMTn-133" value="(1,*)" style="text;align=center;fontStyle=1;verticalAlign=middle;spacingLeft=3;spacingRight=3;strokeColor=none;rotatable=0;points=[[0,0.5],[1,0.5]];portConstraint=eastwest;shadow=1;labelBackgroundColor=#FFFFFF;fontSize=18;fillColor=none;" parent="1" vertex="1">
                    <mxGeometry x="630" y="2275" width="80" height="40" as="geometry"/>
                </mxCell>
                <mxCell id="8mFAtVIMX-Jwpf2GcMTn-134" value="(1,*)" style="text;align=center;fontStyle=1;verticalAlign=middle;spacingLeft=3;spacingRight=3;strokeColor=none;rotatable=0;points=[[0,0.5],[1,0.5]];portConstraint=eastwest;shadow=1;labelBackgroundColor=#FFFFFF;fontSize=18;fillColor=none;" parent="1" vertex="1">
                    <mxGeometry x="390" y="2285" width="80" height="25" as="geometry"/>
                </mxCell>
                <mxCell id="8mFAtVIMX-Jwpf2GcMTn-135" value="(1,1)" style="text;align=center;fontStyle=1;verticalAlign=middle;spacingLeft=3;spacingRight=3;strokeColor=none;rotatable=0;points=[[0,0.5],[1,0.5]];portConstraint=eastwest;shadow=1;labelBackgroundColor=#FFFFFF;fontSize=18;fillColor=none;" parent="1" vertex="1">
                    <mxGeometry x="278" y="2286.5" width="80" height="25" as="geometry"/>
                </mxCell>
                <mxCell id="hqhGjSOYNy7_xdbAXnQc-3" value="" style="whiteSpace=wrap;html=1;aspect=fixed;" parent="1" vertex="1">
                    <mxGeometry x="-320" y="3760" width="2075" height="2075" as="geometry"/>
                </mxCell>
                <mxCell id="hqhGjSOYNy7_xdbAXnQc-5" value="&lt;span style=&quot;font-size: 22px;&quot;&gt;sequence diagramme&lt;/span&gt;" style="rounded=1;whiteSpace=wrap;html=1;shadow=1;fillColor=#60a917;strokeColor=#2D7600;fontColor=#ffffff;" parent="1" vertex="1">
                    <mxGeometry x="530" y="3800" width="340" height="60" as="geometry"/>
                </mxCell>
                <mxCell id="hqhGjSOYNy7_xdbAXnQc-11" value="" style="shape=umlLifeline;participant=umlActor;perimeter=lifelinePerimeter;whiteSpace=wrap;html=1;container=1;collapsible=0;recursiveResize=0;verticalAlign=top;spacingTop=36;outlineConnect=0;" parent="1" vertex="1">
                    <mxGeometry x="250" y="4022" width="20" height="398" as="geometry"/>
                </mxCell>
                <mxCell id="hqhGjSOYNy7_xdbAXnQc-15" value="" style="html=1;points=[];perimeter=orthogonalPerimeter;" parent="hqhGjSOYNy7_xdbAXnQc-11" vertex="1">
                    <mxGeometry x="5" y="70" width="10" height="330" as="geometry"/>
                </mxCell>
                <mxCell id="hqhGjSOYNy7_xdbAXnQc-12" value="patient1:patient" style="shape=umlLifeline;perimeter=lifelinePerimeter;whiteSpace=wrap;html=1;container=1;collapsible=0;recursiveResize=0;outlineConnect=0;fillColor=#d5e8d4;strokeColor=#82b366;" parent="1" vertex="1">
                    <mxGeometry x="410" y="4020" width="100" height="400" as="geometry"/>
                </mxCell>
                <mxCell id="hqhGjSOYNy7_xdbAXnQc-16" value="" style="html=1;points=[];perimeter=orthogonalPerimeter;" parent="hqhGjSOYNy7_xdbAXnQc-12" vertex="1">
                    <mxGeometry x="45" y="100" width="10" height="300" as="geometry"/>
                </mxCell>
                <mxCell id="hqhGjSOYNy7_xdbAXnQc-29" value="" style="html=1;points=[];perimeter=orthogonalPerimeter;" parent="hqhGjSOYNy7_xdbAXnQc-12" vertex="1">
                    <mxGeometry x="50" y="160" width="10" height="100" as="geometry"/>
                </mxCell>
                <mxCell id="hqhGjSOYNy7_xdbAXnQc-30" value="validate info" style="edgeStyle=orthogonalEdgeStyle;html=1;align=left;spacingLeft=2;endArrow=block;rounded=0;entryX=1;entryY=0;exitX=0.83;exitY=-0.003;exitDx=0;exitDy=0;exitPerimeter=0;" parent="hqhGjSOYNy7_xdbAXnQc-12" source="hqhGjSOYNy7_xdbAXnQc-16" target="hqhGjSOYNy7_xdbAXnQc-29" edge="1">
                    <mxGeometry relative="1" as="geometry">
                        <mxPoint x="55" y="92" as="sourcePoint"/>
                        <Array as="points">
                            <mxPoint x="55" y="99"/>
                            <mxPoint x="55" y="120"/>
                            <mxPoint x="85" y="120"/>
                            <mxPoint x="85" y="160"/>
                        </Array>
                    </mxGeometry>
                </mxCell>
                <mxCell id="hqhGjSOYNy7_xdbAXnQc-66" value="cond" style="shape=umlFrame;whiteSpace=wrap;html=1;fillColor=#ffe6cc;strokeColor=#d79b00;" parent="hqhGjSOYNy7_xdbAXnQc-12" vertex="1">
                    <mxGeometry x="-310" y="290" width="680" height="110" as="geometry"/>
                </mxCell>
                <mxCell id="hqhGjSOYNy7_xdbAXnQc-78" value="" style="line;strokeWidth=1;fillColor=none;align=left;verticalAlign=middle;spacingTop=-1;spacingLeft=3;spacingRight=3;rotatable=0;labelPosition=right;points=[];portConstraint=eastwest;strokeColor=inherit;fontSize=22;" parent="hqhGjSOYNy7_xdbAXnQc-12" vertex="1">
                    <mxGeometry x="-309" y="341" width="679" height="8" as="geometry"/>
                </mxCell>
                <mxCell id="hqhGjSOYNy7_xdbAXnQc-13" value="server" style="shape=umlLifeline;perimeter=lifelinePerimeter;whiteSpace=wrap;html=1;container=1;collapsible=0;recursiveResize=0;outlineConnect=0;fillColor=#d5e8d4;strokeColor=#82b366;" parent="1" vertex="1">
                    <mxGeometry x="710" y="4022" width="100" height="400" as="geometry"/>
                </mxCell>
                <mxCell id="hqhGjSOYNy7_xdbAXnQc-17" value="" style="html=1;points=[];perimeter=orthogonalPerimeter;" parent="hqhGjSOYNy7_xdbAXnQc-13" vertex="1">
                    <mxGeometry x="45" y="220" width="10" height="180" as="geometry"/>
                </mxCell>
                <mxCell id="hqhGjSOYNy7_xdbAXnQc-42" value="data ok" style="html=1;verticalAlign=bottom;endArrow=open;dashed=1;endSize=8;rounded=0;" parent="hqhGjSOYNy7_xdbAXnQc-13" edge="1">
                    <mxGeometry relative="1" as="geometry">
                        <mxPoint x="45" y="308" as="sourcePoint"/>
                        <mxPoint x="-240" y="308" as="targetPoint"/>
                    </mxGeometry>
                </mxCell>
                <mxCell id="hqhGjSOYNy7_xdbAXnQc-23" value="send login info" style="html=1;verticalAlign=bottom;endArrow=block;rounded=0;exitX=1.148;exitY=0.117;exitDx=0;exitDy=0;exitPerimeter=0;" parent="1" source="hqhGjSOYNy7_xdbAXnQc-15" target="hqhGjSOYNy7_xdbAXnQc-16" edge="1">
                    <mxGeometry width="80" relative="1" as="geometry">
                        <mxPoint x="270" y="4110" as="sourcePoint"/>
                        <mxPoint x="350" y="4110" as="targetPoint"/>
                    </mxGeometry>
                </mxCell>
                <mxCell id="hqhGjSOYNy7_xdbAXnQc-25" value="select login data" style="html=1;verticalAlign=bottom;endArrow=block;rounded=0;" parent="1" target="hqhGjSOYNy7_xdbAXnQc-17" edge="1">
                    <mxGeometry width="80" relative="1" as="geometry">
                        <mxPoint x="470" y="4262.5" as="sourcePoint"/>
                        <mxPoint x="730" y="4262.5" as="targetPoint"/>
                    </mxGeometry>
                </mxCell>
                <mxCell id="hqhGjSOYNy7_xdbAXnQc-35" value="" style="text;strokeColor=none;fillColor=none;align=left;verticalAlign=middle;spacingTop=-1;spacingLeft=4;spacingRight=4;rotatable=0;labelPosition=right;points=[];portConstraint=eastwest;" parent="1" vertex="1">
                    <mxGeometry x="370" y="4300" width="20" height="14" as="geometry"/>
                </mxCell>
                <mxCell id="hqhGjSOYNy7_xdbAXnQc-38" value="false" style="text;align=center;fontStyle=1;verticalAlign=middle;spacingLeft=3;spacingRight=3;strokeColor=none;rotatable=0;points=[[0,0.5],[1,0.5]];portConstraint=eastwest;" parent="1" vertex="1">
                    <mxGeometry x="140" y="4200" width="80" height="26" as="geometry"/>
                </mxCell>
                <mxCell id="hqhGjSOYNy7_xdbAXnQc-39" value="true" style="text;align=center;fontStyle=1;verticalAlign=middle;spacingLeft=3;spacingRight=3;strokeColor=none;rotatable=0;points=[[0,0.5],[1,0.5]];portConstraint=eastwest;" parent="1" vertex="1">
                    <mxGeometry x="140" y="4250" width="80" height="26" as="geometry"/>
                </mxCell>
                <mxCell id="hqhGjSOYNy7_xdbAXnQc-44" value="redirect to dashboard" style="html=1;verticalAlign=bottom;endArrow=open;dashed=1;endSize=8;rounded=0;" parent="1" edge="1">
                    <mxGeometry relative="1" as="geometry">
                        <mxPoint x="450" y="4340" as="sourcePoint"/>
                        <mxPoint x="270" y="4340" as="targetPoint"/>
                    </mxGeometry>
                </mxCell>
                <mxCell id="hqhGjSOYNy7_xdbAXnQc-64" value="&amp;nbsp;null" style="html=1;verticalAlign=bottom;endArrow=open;dashed=1;endSize=8;rounded=0;" parent="1" edge="1">
                    <mxGeometry relative="1" as="geometry">
                        <mxPoint x="755" y="4390" as="sourcePoint"/>
                        <mxPoint x="470" y="4390" as="targetPoint"/>
                    </mxGeometry>
                </mxCell>
                <mxCell id="hqhGjSOYNy7_xdbAXnQc-65" value="error pass or email" style="html=1;verticalAlign=bottom;endArrow=open;dashed=1;endSize=8;rounded=0;" parent="1" edge="1">
                    <mxGeometry relative="1" as="geometry">
                        <mxPoint x="450" y="4400" as="sourcePoint"/>
                        <mxPoint x="270" y="4400" as="targetPoint"/>
                    </mxGeometry>
                </mxCell>
                <mxCell id="hqhGjSOYNy7_xdbAXnQc-67" value="true" style="text;align=center;fontStyle=1;verticalAlign=middle;spacingLeft=3;spacingRight=3;strokeColor=none;rotatable=0;points=[[0,0.5],[1,0.5]];portConstraint=eastwest;" parent="1" vertex="1">
                    <mxGeometry x="140" y="4330" width="80" height="26" as="geometry"/>
                </mxCell>
                <mxCell id="hqhGjSOYNy7_xdbAXnQc-68" value="false" style="text;align=center;fontStyle=1;verticalAlign=middle;spacingLeft=3;spacingRight=3;strokeColor=none;rotatable=0;points=[[0,0.5],[1,0.5]];portConstraint=eastwest;" parent="1" vertex="1">
                    <mxGeometry x="140" y="4380" width="80" height="26" as="geometry"/>
                </mxCell>
                <mxCell id="hqhGjSOYNy7_xdbAXnQc-70" value="&lt;font style=&quot;font-size: 22px;&quot;&gt;login&lt;/font&gt;" style="whiteSpace=wrap;html=1;aspect=fixed;fillColor=#ffe6cc;strokeColor=#d79b00;" parent="1" vertex="1">
                    <mxGeometry x="890" y="3800" width="60" height="60" as="geometry"/>
                </mxCell>
                <mxCell id="hqhGjSOYNy7_xdbAXnQc-71" value="cond" style="shape=umlFrame;whiteSpace=wrap;html=1;fillColor=#ffe6cc;strokeColor=#d79b00;width=55;height=35;movable=1;resizable=1;rotatable=1;deletable=1;editable=1;connectable=1;" parent="1" vertex="1">
                    <mxGeometry x="99" y="4180" width="680" height="110" as="geometry"/>
                </mxCell>
                <mxCell id="hqhGjSOYNy7_xdbAXnQc-74" value="error&amp;nbsp; validation" style="html=1;verticalAlign=bottom;endArrow=open;dashed=1;endSize=8;rounded=0;entryX=1.421;entryY=0.363;entryDx=0;entryDy=0;entryPerimeter=0;" parent="1" target="hqhGjSOYNy7_xdbAXnQc-15" edge="1">
                    <mxGeometry relative="1" as="geometry">
                        <mxPoint x="460" y="4212.47" as="sourcePoint"/>
                        <mxPoint x="280" y="4212.47" as="targetPoint"/>
                    </mxGeometry>
                </mxCell>
                <mxCell id="hqhGjSOYNy7_xdbAXnQc-79" value="" style="line;strokeWidth=1;fillColor=none;align=left;verticalAlign=middle;spacingTop=-1;spacingLeft=3;spacingRight=3;rotatable=0;labelPosition=right;points=[];portConstraint=eastwest;strokeColor=inherit;fontSize=22;" parent="1" vertex="1">
                    <mxGeometry x="100" y="4236" width="679" height="8" as="geometry"/>
                </mxCell>
                <mxCell id="sVUzO06fTa5UMYFSsqQg-1" value="&lt;p style=&quot;margin:0px;margin-top:4px;text-align:center;&quot;&gt;&lt;i&gt;&amp;lt;&amp;lt;class&amp;gt;&amp;gt;&lt;/i&gt;&lt;br&gt;&lt;b&gt;specialities&lt;/b&gt;&lt;/p&gt;&lt;p style=&quot;margin:0px;margin-left:4px;&quot;&gt;&lt;br&gt;&lt;/p&gt;&lt;p style=&quot;margin:0px;margin-left:4px;&quot;&gt;+ id : string&lt;/p&gt;&lt;p style=&quot;margin:0px;margin-left:4px;&quot;&gt;+ name : string&lt;/p&gt;&lt;p style=&quot;margin:0px;margin-left:4px;&quot;&gt;&lt;br&gt;&lt;/p&gt;&lt;p style=&quot;margin:0px;margin-left:4px;&quot;&gt;&lt;br&gt;&lt;/p&gt;" style="verticalAlign=top;align=left;overflow=fill;fontSize=12;fontFamily=Helvetica;html=1;shadow=1;labelBackgroundColor=#24AB36;fillColor=#FFFFFF;fontColor=#ffffff;strokeColor=#006EAF;" parent="1" vertex="1">
                    <mxGeometry x="629.38" y="2590" width="176.25" height="90" as="geometry"/>
                </mxCell>
                <mxCell id="sVUzO06fTa5UMYFSsqQg-4" value="" style="endArrow=diamondThin;endFill=1;endSize=24;html=1;rounded=0;exitX=1;exitY=1;exitDx=0;exitDy=0;entryX=0.532;entryY=0.016;entryDx=0;entryDy=0;entryPerimeter=0;" parent="1" source="8mFAtVIMX-Jwpf2GcMTn-85" target="sVUzO06fTa5UMYFSsqQg-1" edge="1">
                    <mxGeometry width="160" relative="1" as="geometry">
                        <mxPoint x="610" y="2550" as="sourcePoint"/>
                        <mxPoint x="770" y="2550" as="targetPoint"/>
                    </mxGeometry>
                </mxCell>
            </root>
        </mxGraphModel>
    </diagram>
</mxfile>
>>>>>>> Ossama
